<mxfile host="Electron" modified="2023-10-02T04:28:40.764Z" agent="Mozilla/5.0 (Windows NT 10.0; Win64; x64) AppleWebKit/537.36 (KHTML, like Gecko) draw.io/21.7.5 Chrome/114.0.5735.289 Electron/25.8.1 Safari/537.36" etag="sLUJoQPaU06SPIad7mc9" version="21.7.5" type="device">
  <diagram name="Page-1" id="58cdce13-f638-feb5-8d6f-7d28b1aa9fa0">
    <mxGraphModel dx="1501" dy="721" grid="1" gridSize="10" guides="1" tooltips="1" connect="1" arrows="1" fold="1" page="1" pageScale="1" pageWidth="1100" pageHeight="850" background="none" math="0" shadow="0">
      <root>
        <mxCell id="0" />
        <mxCell id="1" parent="0" />
        <mxCell id="3gXu2X2hrrk8wcLoaLTw-9" value="Change" style="edgeStyle=orthogonalEdgeStyle;rounded=0;orthogonalLoop=1;jettySize=auto;html=1;" edge="1" parent="1" source="3gXu2X2hrrk8wcLoaLTw-1" target="3gXu2X2hrrk8wcLoaLTw-3">
          <mxGeometry relative="1" as="geometry">
            <Array as="points">
              <mxPoint x="290" y="340" />
            </Array>
          </mxGeometry>
        </mxCell>
        <mxCell id="3gXu2X2hrrk8wcLoaLTw-1" value="Red Light" style="ellipse;whiteSpace=wrap;html=1;" vertex="1" parent="1">
          <mxGeometry x="230" y="120" width="120" height="80" as="geometry" />
        </mxCell>
        <mxCell id="3gXu2X2hrrk8wcLoaLTw-8" value="Change" style="edgeStyle=orthogonalEdgeStyle;rounded=0;orthogonalLoop=1;jettySize=auto;html=1;entryX=1;entryY=0.5;entryDx=0;entryDy=0;" edge="1" parent="1" source="3gXu2X2hrrk8wcLoaLTw-2" target="3gXu2X2hrrk8wcLoaLTw-1">
          <mxGeometry relative="1" as="geometry" />
        </mxCell>
        <mxCell id="3gXu2X2hrrk8wcLoaLTw-2" value="Yellow Light" style="ellipse;whiteSpace=wrap;html=1;" vertex="1" parent="1">
          <mxGeometry x="750" y="120" width="120" height="80" as="geometry" />
        </mxCell>
        <mxCell id="3gXu2X2hrrk8wcLoaLTw-7" value="Change" style="edgeStyle=orthogonalEdgeStyle;rounded=0;orthogonalLoop=1;jettySize=auto;html=1;entryX=0.5;entryY=1;entryDx=0;entryDy=0;" edge="1" parent="1" source="3gXu2X2hrrk8wcLoaLTw-3" target="3gXu2X2hrrk8wcLoaLTw-2">
          <mxGeometry relative="1" as="geometry" />
        </mxCell>
        <mxCell id="3gXu2X2hrrk8wcLoaLTw-3" value="Green Light" style="ellipse;whiteSpace=wrap;html=1;" vertex="1" parent="1">
          <mxGeometry x="490" y="300" width="120" height="80" as="geometry" />
        </mxCell>
      </root>
    </mxGraphModel>
  </diagram>
</mxfile>
